<svg width="150" height="150" viewBox="0 0 150 150" fill="none" xmlns="http://www.w3.org/2000/svg">
<g clip-path="url(#clip0_2083_27)">
<path d="M23.6318 139.018C22.2158 139.018 20.7266 138.578 19.1641 137.699C17.6504 136.869 16.332 135.307 15.209 133.012C14.0859 130.766 13.5244 127.714 13.5244 123.856V102.104C13.5244 97.3184 13.085 93.6318 12.2061 91.0439C11.3271 88.4072 9.54492 86.4785 6.85938 85.2578C5.73633 84.8184 4.90625 84.2812 4.36914 83.6465C3.88086 82.9629 3.63672 82.0352 3.63672 80.8633V79.0322C3.63672 77.9092 3.90527 77.0059 4.44238 76.3223C4.97949 75.6387 5.78516 75.0771 6.85938 74.6377C9.54492 73.417 11.3271 71.5127 12.2061 68.9248C13.085 66.3369 13.5244 62.6504 13.5244 57.8652V36.1123C13.5244 32.3037 14.0859 29.2764 15.209 27.0303C16.332 24.7842 17.6504 23.2217 19.1641 22.3428C20.7266 21.4639 22.2158 21.0244 23.6318 21.0244H30.2236C31.1025 21.0244 31.7373 21.3174 32.1279 21.9033C32.5674 22.4893 32.7871 23.4414 32.7871 24.7598V25.2725C32.7871 26.5908 32.5674 27.543 32.1279 28.1289C31.7373 28.7148 31.1025 29.0078 30.2236 29.0078H27.3672C25.6094 29.0078 24.4131 29.6426 23.7783 30.9121C23.1924 32.1816 22.8994 34.208 22.8994 36.9912V59.916C22.8994 65.3848 21.8008 69.7061 19.6035 72.8799C17.4062 76.0049 15.1113 78.4219 12.7188 80.1309C13.7441 80.5703 15.0381 81.5713 16.6006 83.1338C18.2119 84.6963 19.6523 86.918 20.9219 89.7988C22.2402 92.6797 22.8994 96.0977 22.8994 100.053V122.831C22.8994 125.614 23.1924 127.641 23.7783 128.91C24.4131 130.229 25.6094 130.888 27.3672 130.888H30.2236C31.1025 130.888 31.7373 131.181 32.1279 131.767C32.5674 132.401 32.7871 133.378 32.7871 134.696V135.209C32.7871 136.576 32.5674 137.553 32.1279 138.139C31.7373 138.725 31.1025 139.018 30.2236 139.018H23.6318ZM54.6133 121.22C51.0977 121.22 49.3398 120.268 49.3398 118.363V32.4502C49.3398 30.4971 51.0977 29.5205 54.6133 29.5205H55.6387C59.1055 29.5205 60.8389 30.4971 60.8389 32.4502V72.2939H61.3516L93.3584 31.4248C93.9443 30.79 94.8721 30.3262 96.1416 30.0332C97.46 29.6914 98.9004 29.5205 100.463 29.5205H101.708C103.173 29.5205 104.296 29.6914 105.077 30.0332C105.858 30.375 106.249 30.79 106.249 31.2783C106.249 32.0596 105.834 32.9385 105.004 33.915L72.4844 74.4912L111.889 117.338C112.67 118.168 113.061 118.852 113.061 119.389C113.061 120.121 112.621 120.609 111.742 120.854C110.912 121.098 109.447 121.22 107.348 121.22H105.736C103.881 121.22 102.392 121.122 101.269 120.927C100.194 120.731 99.3154 120.268 98.6318 119.535L61.3516 77.6406H60.8389V118.363C60.8389 120.268 59.1055 121.22 55.6387 121.22H54.6133ZM118.261 139.018C117.333 139.018 116.649 138.725 116.21 138.139C115.819 137.553 115.624 136.576 115.624 135.209V134.696C115.624 133.329 115.819 132.353 116.21 131.767C116.649 131.181 117.333 130.888 118.261 130.888H121.117C122.826 130.888 123.998 130.229 124.633 128.91C125.268 127.592 125.585 125.565 125.585 122.831V100.053C125.585 96.0977 126.22 92.6797 127.489 89.7988C128.808 86.918 130.248 84.6963 131.811 83.1338C133.373 81.5713 134.667 80.5703 135.692 80.1309C128.954 75.1992 125.585 68.4609 125.585 59.916V36.9912C125.585 34.2568 125.268 32.2549 124.633 30.9854C123.998 29.667 122.826 29.0078 121.117 29.0078H118.261C117.333 29.0078 116.649 28.7148 116.21 28.1289C115.819 27.543 115.624 26.5908 115.624 25.2725V24.7598C115.624 23.4414 115.819 22.4893 116.21 21.9033C116.649 21.3174 117.333 21.0244 118.261 21.0244H124.779C126.195 21.0244 127.685 21.4639 129.247 22.3428C130.81 23.2217 132.152 24.7842 133.275 27.0303C134.398 29.2764 134.96 32.3037 134.96 36.1123V57.8652C134.96 62.6504 135.399 66.3369 136.278 68.9248C137.157 71.5127 138.939 73.417 141.625 74.6377C142.699 75.126 143.505 75.7119 144.042 76.3955C144.579 77.0791 144.848 77.958 144.848 79.0322V80.8633C144.848 81.9863 144.579 82.8896 144.042 83.5732C143.505 84.208 142.699 84.7695 141.625 85.2578C138.939 86.4785 137.157 88.4072 136.278 91.0439C135.399 93.6318 134.96 97.3184 134.96 102.104V123.856C134.96 127.714 134.398 130.766 133.275 133.012C132.152 135.307 130.81 136.869 129.247 137.699C127.733 138.578 126.244 139.018 124.779 139.018H118.261Z" fill="#E26ECF"/>
</g>
<defs>
<clipPath id="clip0_2083_27">
<rect width="150" height="150" fill="white"/>
</clipPath>
</defs>
</svg>
